<mxfile host="app.diagrams.net" agent="Mozilla/5.0 (Windows NT 10.0; Win64; x64) AppleWebKit/537.36 (KHTML, like Gecko) Chrome/134.0.0.0 Safari/537.36 Edg/134.0.0.0" version="26.1.3">
  <diagram name="Страница — 1" id="uie0Gv6szrArpt2RQjtr">
    <mxGraphModel dx="1435" dy="952" grid="1" gridSize="10" guides="1" tooltips="1" connect="1" arrows="1" fold="1" page="1" pageScale="1" pageWidth="827" pageHeight="1169" math="0" shadow="0">
      <root>
        <mxCell id="0" />
        <mxCell id="1" parent="0" />
        <mxCell id="7oG1OJpiZa8VUTS969EB-7" value="form1" style="shape=umlLifeline;perimeter=lifelinePerimeter;whiteSpace=wrap;html=1;container=1;dropTarget=0;collapsible=0;recursiveResize=0;outlineConnect=0;portConstraint=eastwest;newEdgeStyle={&quot;curved&quot;:0,&quot;rounded&quot;:0};" vertex="1" parent="1">
          <mxGeometry x="40" y="80" width="100" height="630" as="geometry" />
        </mxCell>
        <mxCell id="7oG1OJpiZa8VUTS969EB-6" value="" style="html=1;points=[[0,0,0,0,5],[0,1,0,0,-5],[1,0,0,0,5],[1,1,0,0,-5]];perimeter=orthogonalPerimeter;outlineConnect=0;targetShapes=umlLifeline;portConstraint=eastwest;newEdgeStyle={&quot;curved&quot;:0,&quot;rounded&quot;:0};" vertex="1" parent="7oG1OJpiZa8VUTS969EB-7">
          <mxGeometry x="45" y="70" width="10" height="530" as="geometry" />
        </mxCell>
        <mxCell id="7oG1OJpiZa8VUTS969EB-8" value="computer" style="shape=umlLifeline;perimeter=lifelinePerimeter;whiteSpace=wrap;html=1;container=1;dropTarget=0;collapsible=0;recursiveResize=0;outlineConnect=0;portConstraint=eastwest;newEdgeStyle={&quot;curved&quot;:0,&quot;rounded&quot;:0};" vertex="1" parent="1">
          <mxGeometry x="360" y="80" width="100" height="630" as="geometry" />
        </mxCell>
        <mxCell id="7oG1OJpiZa8VUTS969EB-9" value="" style="html=1;points=[[0,0,0,0,5],[0,1,0,0,-5],[1,0,0,0,5],[1,1,0,0,-5]];perimeter=orthogonalPerimeter;outlineConnect=0;targetShapes=umlLifeline;portConstraint=eastwest;newEdgeStyle={&quot;curved&quot;:0,&quot;rounded&quot;:0};" vertex="1" parent="7oG1OJpiZa8VUTS969EB-8">
          <mxGeometry x="45" y="85" width="10" height="515" as="geometry" />
        </mxCell>
        <mxCell id="7oG1OJpiZa8VUTS969EB-11" value="" style="endArrow=classic;html=1;rounded=0;entryX=0;entryY=0;entryDx=0;entryDy=5;entryPerimeter=0;" edge="1" parent="1" source="7oG1OJpiZa8VUTS969EB-7" target="7oG1OJpiZa8VUTS969EB-9">
          <mxGeometry width="50" height="50" relative="1" as="geometry">
            <mxPoint x="130" y="180" as="sourcePoint" />
            <mxPoint x="200" y="200" as="targetPoint" />
          </mxGeometry>
        </mxCell>
        <mxCell id="7oG1OJpiZa8VUTS969EB-12" value="RunProgram(textBox_instructions, textBox_data)" style="edgeLabel;html=1;align=center;verticalAlign=middle;resizable=0;points=[];" vertex="1" connectable="0" parent="7oG1OJpiZa8VUTS969EB-11">
          <mxGeometry x="-0.5203" y="-1" relative="1" as="geometry">
            <mxPoint x="85" y="-21" as="offset" />
          </mxGeometry>
        </mxCell>
        <mxCell id="7oG1OJpiZa8VUTS969EB-13" value="translator" style="shape=umlLifeline;perimeter=lifelinePerimeter;whiteSpace=wrap;html=1;container=1;dropTarget=0;collapsible=0;recursiveResize=0;outlineConnect=0;portConstraint=eastwest;newEdgeStyle={&quot;curved&quot;:0,&quot;rounded&quot;:0};" vertex="1" parent="1">
          <mxGeometry x="570" y="80" width="100" height="630" as="geometry" />
        </mxCell>
        <mxCell id="7oG1OJpiZa8VUTS969EB-14" value="" style="html=1;points=[[0,0,0,0,5],[0,1,0,0,-5],[1,0,0,0,5],[1,1,0,0,-5]];perimeter=orthogonalPerimeter;outlineConnect=0;targetShapes=umlLifeline;portConstraint=eastwest;newEdgeStyle={&quot;curved&quot;:0,&quot;rounded&quot;:0};" vertex="1" parent="7oG1OJpiZa8VUTS969EB-13">
          <mxGeometry x="45" y="110" width="10" height="70" as="geometry" />
        </mxCell>
        <mxCell id="7oG1OJpiZa8VUTS969EB-25" value="" style="html=1;points=[[0,0,0,0,5],[0,1,0,0,-5],[1,0,0,0,5],[1,1,0,0,-5]];perimeter=orthogonalPerimeter;outlineConnect=0;targetShapes=umlLifeline;portConstraint=eastwest;newEdgeStyle={&quot;curved&quot;:0,&quot;rounded&quot;:0};" vertex="1" parent="7oG1OJpiZa8VUTS969EB-13">
          <mxGeometry x="45" y="210" width="10" height="70" as="geometry" />
        </mxCell>
        <mxCell id="7oG1OJpiZa8VUTS969EB-15" value="" style="endArrow=classic;html=1;rounded=0;entryX=0;entryY=0;entryDx=0;entryDy=5;entryPerimeter=0;" edge="1" parent="1" source="7oG1OJpiZa8VUTS969EB-8" target="7oG1OJpiZa8VUTS969EB-14">
          <mxGeometry width="50" height="50" relative="1" as="geometry">
            <mxPoint x="220" y="290" as="sourcePoint" />
            <mxPoint x="535" y="290" as="targetPoint" />
          </mxGeometry>
        </mxCell>
        <mxCell id="7oG1OJpiZa8VUTS969EB-16" value="TranslateInstuctions(program)" style="edgeLabel;html=1;align=center;verticalAlign=middle;resizable=0;points=[];" vertex="1" connectable="0" parent="7oG1OJpiZa8VUTS969EB-15">
          <mxGeometry x="-0.5203" y="-1" relative="1" as="geometry">
            <mxPoint x="46" y="-16" as="offset" />
          </mxGeometry>
        </mxCell>
        <mxCell id="7oG1OJpiZa8VUTS969EB-17" value="memory" style="shape=umlLifeline;perimeter=lifelinePerimeter;whiteSpace=wrap;html=1;container=1;dropTarget=0;collapsible=0;recursiveResize=0;outlineConnect=0;portConstraint=eastwest;newEdgeStyle={&quot;curved&quot;:0,&quot;rounded&quot;:0};" vertex="1" parent="1">
          <mxGeometry x="727" y="80" width="100" height="630" as="geometry" />
        </mxCell>
        <mxCell id="7oG1OJpiZa8VUTS969EB-18" value="" style="html=1;points=[[0,0,0,0,5],[0,1,0,0,-5],[1,0,0,0,5],[1,1,0,0,-5]];perimeter=orthogonalPerimeter;outlineConnect=0;targetShapes=umlLifeline;portConstraint=eastwest;newEdgeStyle={&quot;curved&quot;:0,&quot;rounded&quot;:0};" vertex="1" parent="7oG1OJpiZa8VUTS969EB-17">
          <mxGeometry x="45" y="320" width="10" height="90" as="geometry" />
        </mxCell>
        <mxCell id="7oG1OJpiZa8VUTS969EB-33" value="" style="html=1;points=[[0,0,0,0,5],[0,1,0,0,-5],[1,0,0,0,5],[1,1,0,0,-5]];perimeter=orthogonalPerimeter;outlineConnect=0;targetShapes=umlLifeline;portConstraint=eastwest;newEdgeStyle={&quot;curved&quot;:0,&quot;rounded&quot;:0};" vertex="1" parent="7oG1OJpiZa8VUTS969EB-17">
          <mxGeometry x="45" y="440" width="10" height="40" as="geometry" />
        </mxCell>
        <mxCell id="7oG1OJpiZa8VUTS969EB-21" value="cpu" style="shape=umlLifeline;perimeter=lifelinePerimeter;whiteSpace=wrap;html=1;container=1;dropTarget=0;collapsible=0;recursiveResize=0;outlineConnect=0;portConstraint=eastwest;newEdgeStyle={&quot;curved&quot;:0,&quot;rounded&quot;:0};" vertex="1" parent="1">
          <mxGeometry x="900" y="80" width="100" height="640" as="geometry" />
        </mxCell>
        <mxCell id="7oG1OJpiZa8VUTS969EB-22" value="" style="html=1;points=[[0,0,0,0,5],[0,1,0,0,-5],[1,0,0,0,5],[1,1,0,0,-5]];perimeter=orthogonalPerimeter;outlineConnect=0;targetShapes=umlLifeline;portConstraint=eastwest;newEdgeStyle={&quot;curved&quot;:0,&quot;rounded&quot;:0};" vertex="1" parent="7oG1OJpiZa8VUTS969EB-21">
          <mxGeometry x="45" y="520" width="10" height="60" as="geometry" />
        </mxCell>
        <mxCell id="7oG1OJpiZa8VUTS969EB-23" value="instructions_bin" style="html=1;verticalAlign=bottom;endArrow=open;dashed=1;endSize=8;curved=0;rounded=0;exitX=0;exitY=1;exitDx=0;exitDy=-5;exitPerimeter=0;" edge="1" parent="1" source="7oG1OJpiZa8VUTS969EB-14" target="7oG1OJpiZa8VUTS969EB-9">
          <mxGeometry relative="1" as="geometry">
            <mxPoint x="540" y="260" as="sourcePoint" />
            <mxPoint x="460" y="260" as="targetPoint" />
          </mxGeometry>
        </mxCell>
        <mxCell id="7oG1OJpiZa8VUTS969EB-26" value="" style="endArrow=classic;html=1;rounded=0;entryX=0;entryY=0;entryDx=0;entryDy=5;entryPerimeter=0;" edge="1" parent="1" source="7oG1OJpiZa8VUTS969EB-8" target="7oG1OJpiZa8VUTS969EB-25">
          <mxGeometry width="50" height="50" relative="1" as="geometry">
            <mxPoint x="400" y="380" as="sourcePoint" />
            <mxPoint x="605" y="380" as="targetPoint" />
          </mxGeometry>
        </mxCell>
        <mxCell id="7oG1OJpiZa8VUTS969EB-27" value="TranslateData(data)" style="edgeLabel;html=1;align=center;verticalAlign=middle;resizable=0;points=[];" vertex="1" connectable="0" parent="7oG1OJpiZa8VUTS969EB-26">
          <mxGeometry x="-0.5203" y="-1" relative="1" as="geometry">
            <mxPoint x="46" y="-16" as="offset" />
          </mxGeometry>
        </mxCell>
        <mxCell id="7oG1OJpiZa8VUTS969EB-28" value="data_bin" style="html=1;verticalAlign=bottom;endArrow=open;dashed=1;endSize=8;curved=0;rounded=0;exitX=0;exitY=1;exitDx=0;exitDy=-5;exitPerimeter=0;" edge="1" parent="1" source="7oG1OJpiZa8VUTS969EB-25" target="7oG1OJpiZa8VUTS969EB-8">
          <mxGeometry relative="1" as="geometry">
            <mxPoint x="630" y="410" as="sourcePoint" />
            <mxPoint x="430" y="410" as="targetPoint" />
          </mxGeometry>
        </mxCell>
        <mxCell id="7oG1OJpiZa8VUTS969EB-29" value="" style="endArrow=classic;html=1;rounded=0;entryX=0;entryY=0;entryDx=0;entryDy=5;entryPerimeter=0;" edge="1" parent="1" source="7oG1OJpiZa8VUTS969EB-9" target="7oG1OJpiZa8VUTS969EB-18">
          <mxGeometry width="50" height="50" relative="1" as="geometry">
            <mxPoint x="420" y="400" as="sourcePoint" />
            <mxPoint x="625" y="400" as="targetPoint" />
          </mxGeometry>
        </mxCell>
        <mxCell id="7oG1OJpiZa8VUTS969EB-30" value="InstructionsSet(instructions_bin)" style="edgeLabel;html=1;align=center;verticalAlign=middle;resizable=0;points=[];" vertex="1" connectable="0" parent="7oG1OJpiZa8VUTS969EB-29">
          <mxGeometry x="-0.5203" y="-1" relative="1" as="geometry">
            <mxPoint x="46" y="-16" as="offset" />
          </mxGeometry>
        </mxCell>
        <mxCell id="7oG1OJpiZa8VUTS969EB-31" value="" style="html=1;verticalAlign=bottom;endArrow=open;dashed=1;endSize=8;curved=0;rounded=0;" edge="1" parent="1" source="7oG1OJpiZa8VUTS969EB-17">
          <mxGeometry x="0.0014" relative="1" as="geometry">
            <mxPoint x="620" y="480" as="sourcePoint" />
            <mxPoint x="415" y="480" as="targetPoint" />
            <mxPoint as="offset" />
          </mxGeometry>
        </mxCell>
        <mxCell id="7oG1OJpiZa8VUTS969EB-34" value="" style="endArrow=classic;html=1;rounded=0;" edge="1" parent="1" source="7oG1OJpiZa8VUTS969EB-9" target="7oG1OJpiZa8VUTS969EB-33">
          <mxGeometry width="50" height="50" relative="1" as="geometry">
            <mxPoint x="420" y="530" as="sourcePoint" />
            <mxPoint x="767" y="530" as="targetPoint" />
          </mxGeometry>
        </mxCell>
        <mxCell id="7oG1OJpiZa8VUTS969EB-35" value="DataSet(data_bin)" style="edgeLabel;html=1;align=center;verticalAlign=middle;resizable=0;points=[];" vertex="1" connectable="0" parent="7oG1OJpiZa8VUTS969EB-34">
          <mxGeometry x="-0.5203" y="-1" relative="1" as="geometry">
            <mxPoint x="46" y="-16" as="offset" />
          </mxGeometry>
        </mxCell>
        <mxCell id="7oG1OJpiZa8VUTS969EB-36" value="" style="html=1;verticalAlign=bottom;endArrow=open;dashed=1;endSize=8;curved=0;rounded=0;exitX=0;exitY=1;exitDx=0;exitDy=-5;exitPerimeter=0;" edge="1" parent="1" source="7oG1OJpiZa8VUTS969EB-33" target="7oG1OJpiZa8VUTS969EB-8">
          <mxGeometry x="0.0014" relative="1" as="geometry">
            <mxPoint x="762" y="600" as="sourcePoint" />
            <mxPoint x="420" y="600" as="targetPoint" />
            <mxPoint as="offset" />
          </mxGeometry>
        </mxCell>
        <mxCell id="7oG1OJpiZa8VUTS969EB-37" value="" style="endArrow=classic;html=1;rounded=0;entryX=0;entryY=0;entryDx=0;entryDy=5;entryPerimeter=0;" edge="1" parent="1" source="7oG1OJpiZa8VUTS969EB-8" target="7oG1OJpiZa8VUTS969EB-22">
          <mxGeometry width="50" height="50" relative="1" as="geometry">
            <mxPoint x="380" y="610" as="sourcePoint" />
            <mxPoint x="914.5" y="610" as="targetPoint" />
          </mxGeometry>
        </mxCell>
        <mxCell id="7oG1OJpiZa8VUTS969EB-38" value="Tick(Memory)" style="edgeLabel;html=1;align=center;verticalAlign=middle;resizable=0;points=[];" vertex="1" connectable="0" parent="7oG1OJpiZa8VUTS969EB-37">
          <mxGeometry x="-0.5203" y="-1" relative="1" as="geometry">
            <mxPoint x="46" y="-16" as="offset" />
          </mxGeometry>
        </mxCell>
        <mxCell id="7oG1OJpiZa8VUTS969EB-39" value="" style="html=1;verticalAlign=bottom;endArrow=open;dashed=1;endSize=8;curved=0;rounded=0;exitX=0;exitY=1;exitDx=0;exitDy=-5;exitPerimeter=0;" edge="1" parent="1" source="7oG1OJpiZa8VUTS969EB-22" target="7oG1OJpiZa8VUTS969EB-8">
          <mxGeometry x="0.0014" relative="1" as="geometry">
            <mxPoint x="932" y="660" as="sourcePoint" />
            <mxPoint x="570" y="660" as="targetPoint" />
            <mxPoint as="offset" />
          </mxGeometry>
        </mxCell>
        <mxCell id="7oG1OJpiZa8VUTS969EB-40" value="" style="html=1;verticalAlign=bottom;endArrow=open;dashed=1;endSize=8;curved=0;rounded=0;entryX=1;entryY=1;entryDx=0;entryDy=-5;entryPerimeter=0;" edge="1" parent="1" source="7oG1OJpiZa8VUTS969EB-8" target="7oG1OJpiZa8VUTS969EB-6">
          <mxGeometry x="0.0014" relative="1" as="geometry">
            <mxPoint x="372" y="670" as="sourcePoint" />
            <mxPoint x="160" y="670" as="targetPoint" />
            <mxPoint as="offset" />
          </mxGeometry>
        </mxCell>
      </root>
    </mxGraphModel>
  </diagram>
</mxfile>
